<svg xmlns="http://www.w3.org/2000/svg" width="139" height="36" viewBox="0 0 139 36" fill="none">
  <g clip-path="url(#clip0_5_14)">
    <path d="M49.5226 0.73803C49.4095 0.881304 48.0747 1.56751 47.3885 1.83898C46.6646 2.12553 45.2922 2.47995 44.1611 2.66847C42.3513 2.97764 41.3182 3.06059 38.5432 3.12845C35.7908 3.19632 34.2374 3.29435 33.9433 3.43009C33.8604 3.46025 33.5512 3.51303 33.2647 3.53566C32.9706 3.55828 32.4729 3.64123 32.1637 3.72418C31.4322 3.91269 29.9844 4.44809 29.4566 4.73464C28.1671 5.42839 26.9455 6.4841 26.214 7.54735C25.9954 7.8716 25.7842 8.15815 25.754 8.18077C25.5429 8.33913 24.4646 10.8879 24.2157 11.8154C23.9593 12.7806 23.6276 14.4622 23.4692 15.6461C23.4541 15.7517 23.424 15.9327 23.4013 16.0609C23.3712 16.1815 23.3184 16.7245 23.2731 17.2674C23.2279 17.8028 23.1826 18.2552 23.1676 18.2628C23.1525 18.2779 23.1223 17.9989 23.0922 17.652C23.0318 16.8451 22.7076 14.9071 22.5417 14.3642C22.4738 14.138 22.4135 13.9344 22.4059 13.9118C22.1043 12.7806 21.486 11.2348 20.9129 10.2168C19.6913 8.02242 17.8815 6.30312 15.9661 5.5038C15.6494 5.3756 15.3252 5.23987 15.2422 5.20217C15.1593 5.16446 15.0763 5.1343 15.0537 5.12676C15.0311 5.11922 14.9632 5.08906 14.9029 5.06643C14.654 4.96086 13.5455 4.71956 12.9423 4.62907C11.9997 4.49333 9.6922 4.51596 8.60633 4.66677C7.76176 4.78742 6.44213 5.0966 6.16312 5.23987C6.09525 5.27003 5.75592 5.41331 5.4015 5.5415C3.71991 6.17493 1.94783 7.57751 0.899661 9.10075L0.5 9.67385V13.9796C0.5 18.4362 0.5 18.4438 0.79409 18.1798C1.02031 17.9762 2.37011 17.3051 2.996 17.0713C3.53893 16.8753 4.74546 16.5133 5.09987 16.4379C5.1602 16.4228 5.37134 16.3776 5.5674 16.3323C6.69097 16.076 8.96075 15.8724 10.7404 15.8724C14.8803 15.8724 18.3566 16.7773 20.5585 18.4136C21.026 18.768 21.8102 19.5372 22.0892 19.9218C22.2174 20.1027 22.3381 20.246 22.3682 20.246C22.3984 20.246 22.5869 20.5853 22.7905 21.0001C22.9941 21.4148 23.1826 21.7542 23.2128 21.7542C23.2354 21.7542 23.2807 21.6637 23.3108 21.543C23.3335 21.4299 23.5521 20.985 23.7934 20.5552C25.2564 17.931 28.1294 16.1514 32.1335 15.3747C32.2994 15.3445 32.488 15.3068 32.5483 15.2917C33.0761 15.156 34.6295 15.0353 36.6203 14.9675C40.5717 14.8468 41.8687 14.6206 44.1535 13.6554C44.6437 13.4442 44.7417 13.3914 45.4053 12.9616C46.4384 12.298 47.4564 11.2725 48.0219 10.3299C49.2888 8.22602 49.8167 5.8733 49.8167 2.3593C49.8167 0.949171 49.8016 0.639999 49.7111 0.639999C49.6583 0.639999 49.5753 0.685244 49.5226 0.73803Z" fill="#E94F11"/>
    <path d="M0.5 30.3129V35.78H23.2731H46.0463V30.4336C46.0463 27.4927 46.0236 25.0344 46.001 24.9665C45.9558 24.8534 43.8821 24.8459 23.2279 24.8459H0.5V30.3129Z" fill="#E94F11"/>
    <path d="M57.2066 19.1524H59.6286V15.6295H61.5002L63.8907 19.1524H66.7216L64.0323 15.2205C65.432 14.7016 66.3913 13.5849 66.3913 11.8077C66.3913 10.7383 66.0611 9.87329 65.4477 9.25993C64.7242 8.53646 63.639 8.14328 62.2393 8.14328H57.2066V19.1524ZM59.6286 13.4905V10.3294H62.0349C63.2144 10.3294 63.9379 10.8641 63.9379 11.9021C63.9379 12.8615 63.2616 13.4905 62.0821 13.4905H59.6286Z" fill="#1D1D1B"/>
    <path d="M68.3546 19.1524H76.7372V16.9977H70.7609V14.6858H75.9507V12.5312H70.7609V10.2979H76.6588V8.14328H68.3546V19.1524Z" fill="#1D1D1B"/>
    <path d="M84.0706 19.3411C86.084 19.3411 87.6412 18.5548 88.773 17.5953V12.8143H83.9922V14.906H86.4301V16.4787C85.8163 16.9191 85.0298 17.1393 84.1491 17.1393C82.199 17.1393 80.8153 15.6609 80.8153 13.6478C80.8153 11.7448 82.2148 10.1878 83.9764 10.1878C85.25 10.1878 86.0048 10.5968 86.8547 11.3045L88.3802 9.46436C87.2317 8.48926 86.0365 7.95454 84.0548 7.95454C80.721 7.95454 78.2831 10.5181 78.2831 13.6478C78.2831 16.9348 80.6418 19.3411 84.0706 19.3411Z" fill="#1D1D1B"/>
    <path d="M90.8671 19.1524H93.2892V8.14328H90.8671V19.1524Z" fill="#1D1D1B"/>
    <path d="M99.732 19.3097C102.107 19.3097 103.774 18.0829 103.774 15.8969C103.774 13.9467 102.516 13.1446 100.283 12.5626C98.38 12.0751 97.9079 11.8392 97.9079 11.1157C97.9079 10.5496 98.3958 10.1249 99.3233 10.1249C100.252 10.1249 101.211 10.5339 102.186 11.2101L103.444 9.38572C102.328 8.48927 100.959 7.98602 99.355 7.98602C97.1056 7.98602 95.5017 9.30714 95.5017 11.3045C95.5017 13.5221 96.9329 14.1354 99.1506 14.7016C100.991 15.1734 101.368 15.4879 101.368 16.1013C101.368 16.7776 100.77 17.1707 99.7795 17.1707C98.521 17.1707 97.4834 16.6518 96.4925 15.8339L95.0613 17.5482C96.3824 18.7278 98.0655 19.3097 99.732 19.3097Z" fill="#1D1D1B"/>
    <path d="M108.249 19.1524H110.671V10.3766H114.02V8.14328H104.899V10.3766H108.249V19.1524Z" fill="#1D1D1B"/>
    <path d="M120.91 19.3411C124.307 19.3411 126.776 16.7776 126.776 13.6478C126.776 10.4867 124.338 7.95456 120.941 7.95456C117.544 7.95456 115.075 10.5181 115.075 13.6478C115.075 16.809 117.512 19.3411 120.91 19.3411ZM120.941 17.1078C118.991 17.1078 117.607 15.5351 117.607 13.6478C117.607 11.7291 118.96 10.1878 120.91 10.1878C122.86 10.1878 124.244 11.7606 124.244 13.6478C124.244 15.5666 122.891 17.1078 120.941 17.1078Z" fill="#1D1D1B"/>
    <path d="M128.714 19.1524H131.105V12.1538L136.436 19.1524H138.496V8.14328H136.106V14.9218L130.947 8.14328H128.714V19.1524Z" fill="#1D1D1B"/>
    <path d="M59.1543 29.3173C60.9149 29.3173 62.1945 27.9888 62.1945 26.3669C62.1945 24.7286 60.9312 23.4163 59.1706 23.4163C57.4101 23.4163 56.1305 24.7448 56.1305 26.3669C56.1305 28.0051 57.3938 29.3173 59.1543 29.3173ZM59.1706 28.16C58.1599 28.16 57.4427 27.3449 57.4427 26.3669C57.4427 25.3725 58.1437 24.5737 59.1543 24.5737C60.165 24.5737 60.8822 25.3887 60.8822 26.3669C60.8822 27.3612 60.1813 28.16 59.1706 28.16Z" fill="#1D1D1B"/>
    <path d="M63.0879 26.0979H64.4083V24.7938H63.903C63.8622 24.3292 64.1393 24.0439 64.7017 23.9868L64.5957 23.4734C63.6259 23.4897 63.0879 23.9216 63.0879 24.9975V26.0979Z" fill="#1D1D1B"/>
    <path d="M70.7342 29.3907L71.533 28.5023L70.9461 28.0051C71.2722 27.5324 71.4515 26.9618 71.4515 26.3669C71.4515 24.7286 70.1881 23.4163 68.4276 23.4163C66.667 23.4163 65.3875 24.7448 65.3875 26.3669C65.3875 28.0051 66.6508 29.3173 68.4113 29.3173C69.0471 29.3173 69.6257 29.138 70.1066 28.8283L70.7342 29.3907ZM68.4276 28.16C67.4169 28.16 66.6997 27.3449 66.6997 26.3669C66.6997 25.3725 67.4006 24.5737 68.4113 24.5737C69.422 24.5737 70.1393 25.3887 70.1393 26.3669C70.1393 26.6684 70.0903 26.9292 69.9844 27.1656L69.0471 26.3179L68.2483 27.2145L69.1774 28.0051C68.9574 28.1029 68.7047 28.16 68.4276 28.16Z" fill="#1D1D1B"/>
    <path d="M74.9449 29.3092C76.477 29.3092 77.4468 28.4615 77.4468 26.7336V23.5141H76.192V26.7825C76.192 27.6872 75.7273 28.1518 74.9612 28.1518C74.195 28.1518 73.7305 27.6709 73.7305 26.7418V23.5141H72.4752V26.7744C72.4752 28.4534 73.4125 29.3092 74.9449 29.3092Z" fill="#1D1D1B"/>
    <path d="M80.543 29.2602H81.6515L83.9583 23.5141H82.6054L81.1139 27.5324L79.6223 23.5141H78.2363L80.543 29.2602Z" fill="#1D1D1B"/>
    <path d="M87.2822 29.2195H88.5129V25.5191L90.1025 27.9317H90.1349L91.7403 25.4947V29.2195H92.9876V23.5141H91.6348L90.1349 25.9267L88.635 23.5141H87.2822V29.2195Z" fill="#1D1D1B"/>
    <path d="M93.8691 29.2195H95.1488L95.6706 27.9399H98.0829L98.6047 29.2195H99.9168L97.4721 23.4734H96.3146L93.8691 29.2195ZM96.1185 26.8314L96.8771 24.9812L97.6349 26.8314H96.1185Z" fill="#1D1D1B"/>
    <path d="M100.798 29.2195H102.053V27.3938H103.023L104.262 29.2195H105.728L104.335 27.1819C105.06 26.9129 105.557 26.3342 105.557 25.4132C105.557 24.8589 105.386 24.4107 105.069 24.0928C104.694 23.7179 104.131 23.5141 103.406 23.5141H100.798V29.2195ZM102.053 26.2853V24.647H103.3C103.911 24.647 104.286 24.9241 104.286 25.4621C104.286 25.9593 103.935 26.2853 103.324 26.2853H102.053Z" fill="#1D1D1B"/>
    <path d="M106.688 29.2195H107.942V27.4753L108.603 26.7906L110.371 29.2195H111.879L109.451 25.9348L111.774 23.5141H110.257L107.942 26.0082V23.5141H106.688V29.2195Z" fill="#1D1D1B"/>
    <path d="M111.993 29.2195H113.273L113.794 27.9399H116.207L116.729 29.2195H118.041L115.596 23.4734H114.438L111.993 29.2195ZM114.243 26.8314L115.001 24.9812L115.758 26.8314H114.243Z" fill="#1D1D1B"/>
    <path d="M118.751 29.2195H123.502V28.1192H120.364L123.502 24.4677V23.5141H118.848V24.6144H121.888L118.751 28.2659V29.2195Z" fill="#1D1D1B"/>
    <path d="M124.749 29.2195H126.004V23.5141H124.749V29.2195Z" fill="#1D1D1B"/>
  </g>
  <defs>
    <clipPath id="clip0_5_14">
      <rect width="137.996" height="35.14" fill="white" transform="translate(0.5 0.639999)"/>
    </clipPath>
  </defs>
</svg>